<svg xmlns="http://www.w3.org/2000/svg" id="Layer_1" data-name="Layer 1" viewBox="90.12 57.7 195.84 104.08">
  <defs>
    <style>
      .cls-1 {
        fill: #00a884;
      }

      .cls-2 {
        fill: #4d5555;
      }
    </style>
  </defs>
  <rect class="cls-1" x="282.32529" y="58.00153" width="3.63043" height="103.47402"/>
  <path class="cls-1" d="M261.99874,161.78014c3.42661,0,6.47247-2.0052,6.47247-5.60947,0-2.23364-1.47217-3.90886-4.06115-5.02569l-2.08134-.91375c-1.4468-.60918-2.38594-1.19297-2.38594-2.36055,0-1.31988,.91377-1.97983,2.38594-1.97983,1.37063,0,2.53821,.65995,3.73117,1.54833l1.8783-2.51285c-1.54832-1.29448-3.40122-1.8529-5.45718-1.8529-3.70582,0-5.99022,2.43669-5.99022,5.33027,0,2.30979,1.21836,3.88348,3.57891,4.848l2.43669,1.01529c1.34525,.58379,2.33517,1.16759,2.33517,2.51284,0,1.24373-1.16759,2.03058-2.69053,2.03058-2.10671,0-3.42659-.83762-4.61955-1.75137l-1.85292,2.53821c1.70063,1.59909,3.90886,2.18288,6.32018,2.18288m-19.34048-.3046h3.62965v-15.17857h4.79724v-2.91897h-13.24953v2.91897h4.82264v15.17857Zm-19.77275-9.59448v-5.66023h2.61436c1.8529,0,2.69053,1.11681,2.69053,2.81742,0,1.90367-.93915,2.84281-2.79205,2.84281h-2.51284Zm-3.62965,9.59448h3.62965v-6.90396h2.18286l3.2997,6.90396h3.90886l-3.85809-7.53852c2.259-.68533,3.35044-2.63976,3.35044-5.12721,0-3.22355-1.95442-5.43181-5.83791-5.43181h-6.67551v18.09753Zm-16.47768-7.10702l2.03057-7.48776h.07615l2.00519,7.48776h-4.1119Zm-5.27951,7.10702h3.35047l1.16756-4.34035h5.63487l1.19296,4.34035h3.65505l-5.25414-18.12291h-4.41651l-5.33026,18.12291Zm-26.65133,0h11.24432v-2.9951h-7.61466v-4.74647h6.04097v-2.96973h-6.04097v-4.41651h7.58929v-2.96973h-11.21894v18.09753Zm-20.53654,0h3.62968v-7.66542h5.73636v7.66542h3.62968v-18.09753h-3.62968v7.25933h-5.73636v-7.25933h-3.62968v18.09753Zm-15.20625,0h3.62965v-15.17857h4.79724v-2.91897h-13.24951v2.91897h4.82261v15.17857Zm-33.85911,0h3.22354v-11.8535h.05077l6.80242,11.8535h3.04588v-18.09753h-3.24894v10.93975h-.05076l-6.24402-10.93975h-3.57889v18.09753Zm-11.12972,0h3.62965v-18.09753h-3.62965v18.09753Z"/>
  <path class="cls-1" d="M254.84109,133.01677h3.22355v-11.85348h.05077l6.80243,11.85348h3.04586v-18.09752h-3.24892v10.93973h-.05077l-6.24401-10.93973h-3.57891v18.09752Zm-20.36115,0h11.24432v-2.99509h-7.61466v-4.74649h6.04097v-2.96971h-6.04097v-4.41651h7.58929v-2.96971h-11.21894v18.09752Zm-25.14149,0h3.17278v-13.32565h.07615l3.35047,8.62996h2.4113l3.32507-8.65536h.05077v13.35105h3.17278v-18.09752h-4.34036l-3.24892,8.19846h-.07615l-3.24892-8.19846h-4.64495v18.09752Zm-15.90696-2.69051c-1.92905,0-2.99511-1.14221-2.99511-3.02049v-6.67554c0-1.87827,1.01529-3.04586,2.91897-3.04586,1.80213,0,3.04586,1.04067,3.04586,2.89357v6.8532c0,1.80215-1.11681,2.99511-2.96971,2.99511m-.02537,2.99509c3.57888,0,6.65014-1.87827,6.65014-6.09172v-6.67554c0-4.21345-3.09663-5.93943-6.67554-5.93943-3.65503,0-6.59937,2.05596-6.59937,6.09174v6.67551c0,4.26422,3.02049,5.93943,6.62477,5.93943m-30.50944-.25381h3.45199l2.66513-12.53882h.10152l2.63976,12.53882h3.47736l3.85811-18.14829h-3.35047l-2.23363,11.92965h-.05077l-2.4113-11.92965h-3.55353l-2.53821,11.95503h-.07615l-2.2844-11.95503h-3.52813l3.83272,18.14829Zm-30.68634-.05077h3.62965v-7.64004h6.0156v-2.91897h-6.0156v-4.61955h7.58929v-2.91897h-11.21894v18.09752Zm-15.90696-2.69051c-1.92905,0-2.99511-1.14221-2.99511-3.02049v-6.67554c0-1.87827,1.01529-3.04586,2.91897-3.04586,1.80213,0,3.04586,1.04067,3.04586,2.89357v6.8532c0,1.80215-1.11681,2.99511-2.96971,2.99511m-.02537,2.99509c3.57888,0,6.65014-1.87827,6.65014-6.09172v-6.67554c0-4.21345-3.09663-5.93943-6.67554-5.93943-3.65503,0-6.59937,2.05596-6.59937,6.09174v6.67551c0,4.26422,3.02049,5.93943,6.62477,5.93943"/>
  <path class="cls-2" d="M252.35372,104.55791h3.17278v-13.32565h.07615l3.35047,8.62996h2.41132l3.32507-8.65533h.05075v13.35103h3.17278v-18.09752h-4.34036l-3.24892,8.19846h-.07615l-3.24892-8.19846h-4.64495v18.09752Zm-17.02145,.30461c3.78195,0,6.5486-2.10674,6.524-6.0156v-12.38653h-3.47814v12.4119c.05077,1.90367-1.14221,3.07126-2.89357,3.07126-1.59831,0-2.99511-.863-2.99511-3.12201v-12.36116h-3.62965v12.56422c0,4.1119,2.74128,5.83791,6.47247,5.83791m-27.76279-.30461h11.24434v-2.99509h-7.61466v-4.74647h6.04097v-2.96974h-6.04097v-4.41651h7.58929v-2.96971h-11.21896v18.09752Zm-16.56688,.30461c3.42659,0,6.47245-2.00522,6.47245-5.60947,0-2.23365-1.47217-3.90886-4.06115-5.0257l-2.08134-.91375c-1.4468-.60917-2.38592-1.19296-2.38592-2.36055,0-1.31988,.91375-1.97982,2.38592-1.97982,1.37065,0,2.53821,.65994,3.7312,1.54832l1.87827-2.51284c-1.54832-1.29448-3.40122-1.8529-5.45718-1.8529-3.7058,0-5.9902,2.43669-5.9902,5.33026,0,2.3098,1.21833,3.88349,3.57888,4.84801l2.43669,1.01529c1.34528,.58379,2.33517,1.16759,2.33517,2.51284,0,1.24373-1.16759,2.03057-2.6905,2.03057-2.10674,0-3.42661-.83761-4.61957-1.75136l-1.8529,2.53821c1.70061,1.59909,3.90886,2.18288,6.32018,2.18288m-22.13255,0c3.78197,0,6.54862-2.10674,6.52325-6.0156v-12.38653h-3.47736v12.4119c.05075,1.90367-1.14221,3.07126-2.89359,3.07126-1.59906,0-2.99509-.863-2.99509-3.12201v-12.36116h-3.62965v12.56422c0,4.1119,2.74128,5.83791,6.47245,5.83791m-32.53769-.30461h3.17278v-13.32565h.07615l3.35044,8.62996h2.41132l3.32507-8.65533h.05075v13.35103h3.17278v-18.09752h-4.34034l-3.24892,8.19846h-.07617l-3.24892-8.19846h-4.64492v18.09752"/>
  <path class="cls-2" d="M257.40463,76.09905h11.24432v-2.99509h-7.61466v-15.10243h-3.62965v18.09752Zm-18.25443-7.10702l2.03057-7.48775h.07615l2.00519,7.48775h-4.1119Zm-5.27951,7.10702h3.35047l1.16756-4.34034h5.63487l1.19296,4.34034h3.65503l-5.25412-18.1229h-4.41651l-5.33026,18.1229Zm-21.64335,0h3.22355v-11.85348h.05077l6.80243,11.85348h3.04586v-18.09752h-3.24892v10.93973h-.05075l-6.24404-10.93973h-3.57891v18.09752Zm-15.91464-2.69051c-1.92907,0-2.99511-1.14219-2.99511-3.02049v-6.67551c0-1.8783,1.01529-3.04588,2.91897-3.04588,1.80213,0,3.04586,1.04067,3.04586,2.89359v6.85318c0,1.80215-1.11681,2.99511-2.96971,2.99511m-.0254,2.99511c3.57891,0,6.65014-1.8783,6.65014-6.09174v-6.67551c0-4.21347-3.09663-5.93945-6.67551-5.93945-3.65505,0-6.59939,2.05596-6.59939,6.09174v6.67551c0,4.26422,3.02049,5.93945,6.62477,5.93945m-20.305-.30461h3.62965v-18.09752h-3.62965v18.09752Zm-17.51375,0h3.62968v-15.17855h4.79724v-2.91897h-13.24953v2.91897h4.82261v15.17855Zm-20.93956-7.10702l2.03059-7.48775h.07615l2.00519,7.48775h-4.11193Zm-5.27949,7.10702h3.35044l1.16759-4.34034h5.63484l1.19298,4.34034h3.65503l-5.25412-18.1229h-4.41651l-5.33026,18.1229Zm-21.64334,0h3.22354v-11.85348h.05075l6.80245,11.85348h3.04586v-18.09752h-3.24892v10.93973h-.05077l-6.24401-10.93973h-3.57889v18.09752"/>
</svg>